<svg width="43" height="43" viewBox="0 0 43 43" fill="none" xmlns="http://www.w3.org/2000/svg">
<path d="M2.87895 32.25C4.36094 34.8221 7.6475 35.7058 10.2196 34.2238C10.2214 34.2228 10.223 34.2218 10.2248 34.2208L11.0221 33.7603C12.5271 35.0479 14.257 36.0465 16.1247 36.7058V37.625C16.1247 40.5935 18.5312 43 21.4997 43C24.4682 43 26.8747 40.5935 26.8747 37.625V36.7059C28.7427 36.0455 30.4727 35.0458 31.9774 33.7568L32.7782 34.219C35.3509 35.7033 38.6398 34.8209 40.1241 32.2482C41.6083 29.6755 40.726 26.3865 38.1532 24.9023L37.3577 24.4437C37.7158 22.4951 37.7158 20.4976 37.3577 18.549L38.1532 18.0904C40.7259 16.6061 41.6083 13.3173 40.1241 10.7445C38.6398 8.17185 35.351 7.28942 32.7782 8.77368L31.981 9.23417C30.4744 7.94811 28.7434 6.95139 26.8747 6.29413V5.375C26.8747 2.40649 24.4682 0 21.4997 0C18.5312 0 16.1247 2.40649 16.1247 5.375V6.29413C14.2567 6.95449 12.5267 7.95424 11.0221 9.24324L10.2212 8.77922C7.64842 7.29488 4.35959 8.17731 2.87534 10.75C1.39108 13.3227 2.27342 16.6116 4.8462 18.0959L5.6417 18.5545C5.28359 20.503 5.28359 22.5005 5.6417 24.4491L4.8462 24.9077C2.28056 26.396 1.40107 29.6784 2.87895 32.25ZM21.4997 14.3334C25.4577 14.3334 28.6664 17.542 28.6664 21.5C28.6664 25.458 25.4577 28.6666 21.4997 28.6666C17.5417 28.6666 14.3331 25.458 14.3331 21.5C14.3331 17.542 17.5417 14.3334 21.4997 14.3334Z" fill="url(#paint0_linear_1127_2451)"/>
<defs>
<linearGradient id="paint0_linear_1127_2451" x1="-3.64869" y1="35.905" x2="58.1387" y2="3.53609" gradientUnits="userSpaceOnUse">
<stop stop-color="#FBC2EB"/>
<stop offset="0.383309" stop-color="#EDC2EC"/>
<stop offset="0.705782" stop-color="#C8C1ED"/>
<stop offset="1" stop-color="#A6C1EE"/>
</linearGradient>
</defs>
</svg>
