<svg width="43" height="43" viewBox="0 0 43 43" fill="none" xmlns="http://www.w3.org/2000/svg">
<g clip-path="url(#clip0_1127_4290)">
<path d="M16.125 21.5C22.0621 21.5 26.875 16.6871 26.875 10.75C26.875 4.81294 22.0621 0 16.125 0C10.1879 0 5.375 4.81294 5.375 10.75C5.375 16.6871 10.1879 21.5 16.125 21.5Z" fill="url(#paint0_linear_1127_4290)"/>
<path d="M16.125 25.0834C11.85 25.0886 7.75156 26.7891 4.72866 29.812C1.70577 32.8349 0.00521546 36.9333 0 41.2083C0 41.6835 0.188764 42.1392 0.524767 42.4752C0.86077 42.8112 1.31649 43 1.79167 43H30.4583C30.9335 43 31.3892 42.8112 31.7252 42.4752C32.0612 42.1392 32.25 41.6835 32.25 41.2083C32.2448 36.9333 30.5442 32.8349 27.5213 29.812C24.4984 26.7891 20.4 25.0886 16.125 25.0834Z" fill="url(#paint1_linear_1127_4290)"/>
<path d="M39.4165 14.1094C38.4194 14.159 37.4825 14.6017 36.811 15.3404C36.1394 16.0791 35.7878 17.0537 35.8331 18.051C35.8784 17.0537 35.5268 16.0791 34.8553 15.3404C34.1837 14.6017 33.2469 14.159 32.2498 14.1094C31.2527 14.159 30.3159 14.6017 29.6443 15.3404C28.9728 16.0791 28.6212 17.0537 28.6665 18.051C28.6665 21.1506 32.7085 24.7823 34.7223 26.3984C35.0375 26.6508 35.4293 26.7883 35.8331 26.7883C36.2369 26.7883 36.6287 26.6508 36.944 26.3984C38.9578 24.7859 42.9998 21.1506 42.9998 18.051C43.0451 17.0537 42.6935 16.0791 42.0219 15.3404C41.3504 14.6017 40.4135 14.159 39.4165 14.1094Z" fill="url(#paint2_linear_1127_4290)"/>
</g>
<defs>
<linearGradient id="paint0_linear_1127_4290" x1="2.15" y1="17.9525" x2="34.83" y2="-1.075" gradientUnits="userSpaceOnUse">
<stop stop-color="#FBC2EB"/>
<stop offset="0.383309" stop-color="#EDC2EC"/>
<stop offset="0.705782" stop-color="#C8C1ED"/>
<stop offset="1" stop-color="#A6C1EE"/>
</linearGradient>
<linearGradient id="paint1_linear_1127_4290" x1="-4.8375" y1="40.0437" x2="26.4429" y2="7.26094" gradientUnits="userSpaceOnUse">
<stop stop-color="#FBC2EB"/>
<stop offset="0.383309" stop-color="#EDC2EC"/>
<stop offset="0.705782" stop-color="#C8C1ED"/>
<stop offset="1" stop-color="#A6C1EE"/>
</linearGradient>
<linearGradient id="paint2_linear_1127_4290" x1="26.5114" y1="24.6963" x2="46.8699" y2="11.2889" gradientUnits="userSpaceOnUse">
<stop stop-color="#FBC2EB"/>
<stop offset="0.383309" stop-color="#EDC2EC"/>
<stop offset="0.705782" stop-color="#C8C1ED"/>
<stop offset="1" stop-color="#A6C1EE"/>
</linearGradient>
<clipPath id="clip0_1127_4290">
<rect width="43" height="43" fill="white"/>
</clipPath>
</defs>
</svg>
