<svg width="43" height="43" viewBox="0 0 43 43" fill="none" xmlns="http://www.w3.org/2000/svg">
<path d="M8.95891 39.4167C9.90927 39.4167 10.8207 39.0392 11.4927 38.3672C12.1647 37.6952 12.5422 36.7837 12.5422 35.8334V25.0834C12.5422 24.133 12.1647 23.2216 11.4927 22.5496C10.8207 21.8776 9.90927 21.5 8.95891 21.5V19.7084C8.95891 16.3821 10.2803 13.1921 12.6323 10.8401C14.9843 8.48806 18.1743 7.16671 21.5006 7.16671C24.8268 7.16671 28.0169 8.48806 30.3689 10.8401C32.7209 13.1921 34.0422 16.3821 34.0422 19.7084V21.5C33.0919 21.5 32.1805 21.8776 31.5084 22.5496C30.8364 23.2216 30.4589 24.133 30.4589 25.0834V35.8334H25.0839C24.6087 35.8334 24.153 36.0221 23.817 36.3581C23.481 36.6941 23.2922 37.1499 23.2922 37.625C23.2922 38.1002 23.481 38.5559 23.817 38.8919C24.153 39.2279 24.6087 39.4167 25.0839 39.4167H34.0422C36.0955 39.4106 38.0844 38.6993 39.6758 37.4019C41.2673 36.1045 42.3648 34.2998 42.7846 32.2899C43.2044 30.28 42.9209 28.1869 41.9818 26.361C41.0426 24.535 39.5047 23.0872 37.6256 22.2597V19.7084C37.6256 15.4318 35.9267 11.3303 32.9027 8.30628C29.8786 5.28225 25.7772 3.58337 21.5006 3.58337C17.224 3.58337 13.1225 5.28225 10.0985 8.30628C7.07445 11.3303 5.37557 15.4318 5.37557 19.7084V22.2597C3.4964 23.0872 1.95851 24.535 1.01935 26.361C0.0801991 28.1869 -0.20321 30.28 0.216572 32.2899C0.636353 34.2998 1.73384 36.1045 3.32531 37.4019C4.91679 38.6993 6.90563 39.4106 8.95891 39.4167Z" fill="url(#paint0_linear_1127_2482)"/>
<defs>
<linearGradient id="paint0_linear_1127_2482" x1="-6.41462" y1="33.5042" x2="52.369" y2="-7.51587" gradientUnits="userSpaceOnUse">
<stop stop-color="#FBC2EB"/>
<stop offset="0.383309" stop-color="#EDC2EC"/>
<stop offset="0.705782" stop-color="#C8C1ED"/>
<stop offset="1" stop-color="#A6C1EE"/>
</linearGradient>
</defs>
</svg>
