<svg width="43" height="43" viewBox="0 0 43 43" fill="none" xmlns="http://www.w3.org/2000/svg">
<g clip-path="url(#clip0_1127_2499)">
<path d="M15.5875 32.2494H5.375C2.70004 32.2494 0 30.2177 0 25.6812V16.6512C0.0376736 12.5342 1.57922 8.57308 4.33436 5.51369C7.08949 2.4543 10.8681 0.507758 14.9586 0.0406126C17.2669 -0.126954 19.5843 0.204338 21.7532 1.01198C23.9221 1.81962 25.8917 3.08468 27.5282 4.7212C29.1647 6.35772 30.4298 8.32734 31.2374 10.4962C32.0451 12.6651 32.3764 14.9825 32.2088 17.2908C31.741 21.383 29.7928 25.1628 26.7313 27.9181C23.6697 30.6734 19.7062 32.214 15.5875 32.2494ZM35.8333 16.2677H35.8118C35.8118 16.6924 35.8118 17.117 35.7903 17.5434C35.0987 27.2327 26.2425 35.435 16.2755 35.7987V35.8256C17.5308 38.0026 19.3363 39.8114 21.5112 41.0705C23.686 42.3297 26.1536 42.9949 28.6667 42.9994H37.625C39.0505 42.9994 40.4177 42.4331 41.4257 41.4251C42.4337 40.4171 43 39.0499 43 37.6244V28.6661C42.9974 26.1525 42.3339 23.6839 41.076 21.5077C39.8181 19.3316 38.0101 17.5245 35.8333 16.2677Z" fill="url(#paint0_linear_1127_2499)"/>
</g>
<defs>
<linearGradient id="paint0_linear_1127_2499" x1="-6.45" y1="35.9042" x2="58.9109" y2="-2.15029" gradientUnits="userSpaceOnUse">
<stop stop-color="#FBC2EB"/>
<stop offset="0.383309" stop-color="#EDC2EC"/>
<stop offset="0.705782" stop-color="#C8C1ED"/>
<stop offset="1" stop-color="#A6C1EE"/>
</linearGradient>
<clipPath id="clip0_1127_2499">
<rect width="43" height="43" fill="white"/>
</clipPath>
</defs>
</svg>
