<svg width="43" height="43" viewBox="0 0 43 43" fill="none" xmlns="http://www.w3.org/2000/svg">
<g clip-path="url(#clip0_1127_2459)">
<path d="M21.5 0C17.2477 0 13.0909 1.26095 9.55525 3.6234C6.01959 5.98585 3.26388 9.3437 1.6366 13.2723C0.00931565 17.2009 -0.416456 21.5239 0.413126 25.6944C1.24271 29.865 3.29039 33.696 6.29721 36.7028C9.30404 39.7096 13.135 41.7573 17.3056 42.5869C21.4762 43.4165 25.7991 42.9907 29.7277 41.3634C33.6563 39.7361 37.0142 36.9804 39.3766 33.4448C41.7391 29.9091 43 25.7523 43 21.5C42.9938 15.7997 40.7267 10.3347 36.696 6.30401C32.6653 2.27332 27.2003 0.00616527 21.5 0V0ZM14.3333 14.3333C15.2837 14.3333 16.1951 14.7109 16.8671 15.3829C17.5391 16.0549 17.9167 16.9663 17.9167 17.9167C17.9167 19.7083 16.3131 19.7083 14.3333 19.7083C12.3536 19.7083 10.75 19.7083 10.75 17.9167C10.75 16.9663 11.1275 16.0549 11.7995 15.3829C12.4715 14.7109 13.383 14.3333 14.3333 14.3333ZM31.6516 28.2116C28.8067 30.642 25.237 32.0621 21.5 32.25C17.763 32.0621 14.1934 30.642 11.3484 28.2116C10.9939 27.8951 10.7797 27.4508 10.7528 26.9764C10.7395 26.7414 10.7726 26.5062 10.8502 26.2841C10.9278 26.0619 11.0484 25.8573 11.2051 25.6818C11.3618 25.5062 11.5515 25.3633 11.7635 25.2611C11.9754 25.1589 12.2054 25.0994 12.4403 25.0861C12.9148 25.0593 13.3804 25.2219 13.7349 25.5384C15.9247 27.3804 18.6448 28.4763 21.5 28.6667C24.3569 28.4761 27.0784 27.379 29.2687 25.5348C29.4444 25.3784 29.6493 25.2581 29.8715 25.1808C30.0938 25.1035 30.3291 25.0707 30.564 25.0843C30.7989 25.098 31.0289 25.1578 31.2407 25.2603C31.4525 25.3628 31.642 25.506 31.7985 25.6818C31.955 25.8575 32.0753 26.0624 32.1526 26.2846C32.2299 26.5069 32.2626 26.7422 32.249 26.9771C32.2354 27.212 32.1756 27.4419 32.0731 27.6538C31.9706 27.8656 31.8274 28.0551 31.6516 28.2116ZM28.6667 19.7083C26.6869 19.7083 25.0833 19.7083 25.0833 17.9167C25.0833 16.9663 25.4609 16.0549 26.1329 15.3829C26.8049 14.7109 27.7163 14.3333 28.6667 14.3333C29.617 14.3333 30.5285 14.7109 31.2005 15.3829C31.8725 16.0549 32.25 16.9663 32.25 17.9167C32.25 19.7083 30.6465 19.7083 28.6667 19.7083Z" fill="url(#paint0_linear_1127_2459)"/>
</g>
<defs>
<linearGradient id="paint0_linear_1127_2459" x1="-6.45" y1="35.905" x2="58.91" y2="-2.15" gradientUnits="userSpaceOnUse">
<stop stop-color="#FBC2EB"/>
<stop offset="0.383309" stop-color="#EDC2EC"/>
<stop offset="0.705782" stop-color="#C8C1ED"/>
<stop offset="1" stop-color="#A6C1EE"/>
</linearGradient>
<clipPath id="clip0_1127_2459">
<rect width="43" height="43" fill="white"/>
</clipPath>
</defs>
</svg>
