<svg width="73" height="73" viewBox="0 0 73 73" fill="none" xmlns="http://www.w3.org/2000/svg">
<g filter="url(#filter0_di_1127_8351)">
<path d="M15 46.9695H18.8608C18.8608 46.9695 19.5372 45.8031 19.9947 45.0807C20.4546 44.3545 20.7372 43.9744 21.2096 43.2619C21.814 42.3504 22.3694 42.015 22.7486 40.9184C22.9327 40.3858 22.9724 40.0532 23.0725 39.4843C23.2006 38.7573 23.2885 37.5955 23.2885 37.5955C23.2885 37.5955 23.6434 37.513 23.8555 37.5955C24.3039 37.7699 24.4174 38.2759 24.5575 38.8547C24.6899 39.4021 24.6294 39.7577 24.5575 40.3237C24.4471 41.1928 23.9539 41.516 23.8555 42.3874C23.8021 42.8605 23.8555 43.6116 23.8555 43.6116L31.1721 43.8215C31.1721 43.8215 31.7516 43.8421 32.036 44.1013C32.2569 44.3026 32.4579 44.4513 32.468 44.8009C32.4765 45.0939 32.3659 45.2687 32.198 45.4654C32.0076 45.6886 31.5771 45.7453 31.5771 45.7453L27.2303 46.165C27.2303 46.165 27.5085 47.0128 27.4463 47.5641C27.3883 48.0779 26.9873 48.7533 26.9873 48.7533C26.9873 48.7533 27.285 49.4674 27.2303 49.9426C27.1802 50.3783 26.7983 50.9219 26.7983 50.9219L26.4743 51.3766C26.4743 51.3766 26.3792 52.0029 26.2314 52.356C26.0743 52.7311 25.6914 53.1955 25.6914 53.1955C25.6914 53.1955 24.5715 53.2431 23.8555 53.1955C23.0078 53.1391 21.6956 52.8807 21.6956 52.8807C21.6956 52.8807 20.1641 52.5667 19.1848 52.6708C17.7918 52.8189 15.756 54 15.756 54L15 46.9695Z" fill="url(#paint0_linear_1127_8351)"/>
</g>
<g filter="url(#filter1_di_1127_8351)">
<path d="M42.5503 42.3347L49.6537 42.6169C49.6537 42.6169 48.0395 39.1301 49.263 37.5721C49.6322 37.102 49.9971 36.9921 50.4351 36.5843C51.1587 35.9106 51.4776 35.4479 52.1399 34.7145C53.1044 33.6465 53.3432 32.6862 54.5906 31.9628C55.2201 31.5978 55.6362 31.5117 56.3309 31.2925C56.9722 31.0902 58.0002 30.8692 58.0002 30.8692C58.0002 30.8692 57.9972 30.0804 57.7161 29.705C57.242 29.0719 56.5213 29.2646 55.7271 29.2817C54.2945 29.3124 52.4241 30.8692 52.4241 30.8692H51.7492L51.181 26.8475C51.181 26.8475 50.6069 26.21 50.1154 26.1772C49.5643 26.1403 48.8723 26.8475 48.8723 26.8475C48.8723 26.8475 48.0138 26.4443 47.4517 26.53C46.899 26.6142 46.2086 27.2355 46.2086 27.2355C46.2086 27.2355 45.2802 27.0252 44.7524 27.2355C44.2423 27.4388 43.7224 28.188 43.7224 28.188C43.7224 28.188 43.1522 28.2389 42.8344 28.3997C42.3264 28.6569 41.8755 29.4933 41.8755 29.4933C41.8755 29.4933 42.24 32.1458 42.5503 33.8326C42.8202 35.2998 43.267 36.082 43.3317 37.5721C43.4134 39.4548 42.5503 42.3347 42.5503 42.3347Z" fill="url(#paint1_linear_1127_8351)"/>
</g>
<g filter="url(#filter2_di_1127_8351)">
<path d="M27.7295 11.0064C25.1427 11.095 21.2138 12.2141 21.2138 12.2141C21.2138 12.2141 17.3105 13.52 16.2708 15.6137C15.3221 17.5242 16.0905 18.9473 16.2708 21.0709C16.5399 24.239 16.62 26.1554 17.9784 29.033C19.6493 32.5728 20.9367 35.2106 24.6289 36.5478C26.0658 37.0682 26.9645 37.1546 28.4934 37.174C30.5102 37.1997 31.7851 37.1673 33.5712 36.2347C36.5498 34.6793 37.0377 32.1582 38.2445 29.033C39.3822 26.0869 39.6375 21.0709 39.6375 21.0709C39.6375 21.0709 40.5442 17.5443 39.6375 15.6137C38.7846 13.7975 35.7731 12.2141 35.7731 12.2141C35.7731 12.2141 30.9044 10.8977 27.7295 11.0064Z" fill="url(#paint2_linear_1127_8351)"/>
<path d="M26.8356 15.0764V18.6549C26.8356 18.6549 24.8437 19.0439 23.6003 19.4153C22.5476 19.7297 21.8025 19.6655 20.949 20.3547C20.5144 20.7056 20.0054 21.4282 20.0054 21.4282C20.0054 21.4282 20.4638 20.3627 20.949 19.8179C21.4566 19.248 22.5218 18.6549 22.5218 18.6549C22.5218 18.6549 24.1318 17.8999 24.9933 17.1788C25.831 16.4776 26.8356 15.0764 26.8356 15.0764Z" fill="#010101" stroke="#0D0D0D" stroke-width="0.25"/>
<path d="M28.2695 17.3574V19.3256L31.0106 19.5045C31.0106 19.5045 32.726 19.6586 33.7967 19.9071C34.4188 20.0515 35.3694 20.3544 35.3694 20.3544L36.358 21.0701C36.358 21.0701 35.9267 20.2807 35.5042 19.9071C34.8634 19.3403 34.3004 19.3114 33.4821 19.0572C32.4603 18.7397 31.837 18.7674 30.7859 18.5652C30.0831 18.4299 29.5715 18.6208 28.9885 18.2073C28.6335 17.9555 28.2695 17.3574 28.2695 17.3574Z" fill="black" stroke="#0D0D0D" stroke-width="0.25"/>
<path d="M23.3236 22.683L22.7394 22.1463C22.7394 22.1463 23.4501 21.4746 23.9976 21.52C24.4685 21.5591 24.8492 21.7122 25.0311 22.1463C25.1955 22.5385 25.0939 22.87 24.8514 23.2198C24.6274 23.5429 24.3756 23.6448 23.9976 23.7566C23.4737 23.9115 22.9923 24.0059 22.6046 23.6224C22.329 23.3498 22.29 22.683 22.29 22.683H23.3236Z" fill="black"/>
<path d="M32.4811 22.2844L33.0653 21.7476C33.0653 21.7476 32.3545 21.0759 31.8071 21.1213C31.3362 21.1604 30.9555 21.3135 30.7736 21.7476C30.6092 22.1398 30.7108 22.4713 30.9533 22.8211C31.1773 23.1442 31.4291 23.2461 31.8071 23.3579C32.331 23.5128 32.8124 23.6072 33.2001 23.2237C33.4757 22.9512 33.5146 22.2844 33.5146 22.2844H32.4811Z" fill="black"/>
<path d="M29.5249 23.3059C29.5249 23.3059 30.6541 23.7297 31.4122 23.8427C32.28 23.972 32.8006 24.0234 33.659 23.8427C34.4211 23.6823 35.5014 23.0823 35.5014 23.0823C35.5014 23.0823 35.0567 23.8093 34.6476 24.1558C34.2348 24.5055 33.9557 24.6793 33.4343 24.8268C32.8098 25.0035 32.4019 24.9826 31.7717 24.8268C31.2005 24.6856 30.9005 24.4992 30.4236 24.1558C30.0314 23.8734 29.5249 23.3059 29.5249 23.3059Z" fill="black"/>
<path d="M33.9736 25.2294C33.9736 25.2294 33.815 26.2315 34.2432 26.3029C34.4621 26.3394 34.6293 26.284 34.7824 26.124C35.1081 25.7837 33.9736 25.2294 33.9736 25.2294Z" fill="black"/>
<path fill-rule="evenodd" clip-rule="evenodd" d="M22.0181 28.7634C22.0181 28.7634 23.4067 28.7416 24.2649 28.5397C25.4198 28.268 27.0509 27.332 27.0509 27.332L28.2192 28.003L29.073 27.1531C29.073 27.1531 30.5593 28.0795 31.6344 28.2714C32.4462 28.4163 33.7464 28.2714 33.7464 28.2714C33.7464 28.2714 32.4809 30.0323 31.6344 31.1341C31.065 31.8753 30.9466 32.5187 30.1515 33.0128C29.0186 33.7168 27.9575 33.7301 26.7363 33.1918C25.7946 32.7766 25.5946 32.0652 24.849 31.3578C23.7613 30.3257 22.0181 28.7634 22.0181 28.7634ZM32.578 29.0318L23.4111 29.2107C23.4111 29.2107 24.1356 29.9696 24.6693 30.3737C25.4073 30.9325 25.8426 31.291 26.7363 31.5367C27.7174 31.8064 28.3635 31.8135 29.3426 31.5367C30.22 31.2887 30.6677 30.9592 31.3648 30.3737C31.9061 29.919 32.578 29.0318 32.578 29.0318Z" fill="#CA3B3B"/>
<path d="M23.4111 29.2107L32.578 29.0318C32.578 29.0318 31.9061 29.919 31.3648 30.3737C30.6677 30.9592 30.22 31.2887 29.3426 31.5367C28.3635 31.8135 27.7174 31.8064 26.7363 31.5367C25.8426 31.291 25.4073 30.9325 24.6693 30.3737C24.1356 29.9696 23.4111 29.2107 23.4111 29.2107Z" fill="#FFFBFB"/>
<path d="M30.8569 31.3933C30.7393 31.5869 30.6403 31.7641 30.5552 31.8982C30.3795 32.1749 30.1997 32.3944 29.8872 32.5886C29.382 32.9025 28.916 33.0493 28.4556 33.0691C27.9919 33.089 27.4984 32.9812 26.938 32.7341C26.5654 32.5698 26.3394 32.3518 26.106 32.0671C26.0299 31.9744 25.9463 31.8655 25.854 31.7468C26.0753 31.8483 26.3193 31.941 26.604 32.0193C27.1206 32.1613 27.5742 32.2409 28.0396 32.2419C28.389 32.2427 28.7317 32.1987 29.1001 32.115L29.479 32.0183C30.0547 31.8556 30.467 31.6529 30.8569 31.3933ZM31.4878 29.5525C31.4004 29.6473 31.3132 29.7407 31.2271 29.824L31.0435 29.991C30.3672 30.5589 29.9836 30.8358 29.2065 31.0554C28.7468 31.1854 28.3883 31.2427 28.0415 31.2419C27.6939 31.2412 27.3331 31.1821 26.8687 31.0544C26.0807 30.8378 25.7169 30.54 24.9712 29.9753L24.7817 29.823C24.73 29.7796 24.6777 29.7333 24.6245 29.6863L31.4878 29.5525ZM27.9702 28.4363L28.2817 28.615L25.4429 28.6707C25.7512 28.5451 26.0499 28.4097 26.3091 28.2839C26.5928 28.1462 26.8396 28.0171 27.0151 27.9226C27.0257 27.9169 27.0354 27.9104 27.0454 27.905L27.9702 28.4363ZM29.1519 27.7781C29.3055 27.8651 29.5023 27.9741 29.7251 28.0867C30.0425 28.247 30.4295 28.426 30.8237 28.5652L28.313 28.614L28.5718 28.3572L29.1519 27.7781Z" stroke="#CA3B3B"/>
</g>
<defs>
<filter id="filter0_di_1127_8351" x="0" y="26.5588" width="47.4683" height="46.4412" filterUnits="userSpaceOnUse" color-interpolation-filters="sRGB">
<feFlood flood-opacity="0" result="BackgroundImageFix"/>
<feColorMatrix in="SourceAlpha" type="matrix" values="0 0 0 0 0 0 0 0 0 0 0 0 0 0 0 0 0 0 127 0" result="hardAlpha"/>
<feOffset dy="4"/>
<feGaussianBlur stdDeviation="7.5"/>
<feComposite in2="hardAlpha" operator="out"/>
<feColorMatrix type="matrix" values="0 0 0 0 0.764706 0 0 0 0 0.666667 0 0 0 0 0.960784 0 0 0 0.25 0"/>
<feBlend mode="normal" in2="BackgroundImageFix" result="effect1_dropShadow_1127_8351"/>
<feBlend mode="normal" in="SourceGraphic" in2="effect1_dropShadow_1127_8351" result="shape"/>
<feColorMatrix in="SourceAlpha" type="matrix" values="0 0 0 0 0 0 0 0 0 0 0 0 0 0 0 0 0 0 127 0" result="hardAlpha"/>
<feOffset dy="4"/>
<feGaussianBlur stdDeviation="2"/>
<feComposite in2="hardAlpha" operator="arithmetic" k2="-1" k3="1"/>
<feColorMatrix type="matrix" values="0 0 0 0 0.7643 0 0 0 0 0.66568 0 0 0 0 0.961538 0 0 0 0.25 0"/>
<feBlend mode="normal" in2="shape" result="effect2_innerShadow_1127_8351"/>
</filter>
<filter id="filter1_di_1127_8351" x="26.8755" y="15.1758" width="46.1245" height="46.4412" filterUnits="userSpaceOnUse" color-interpolation-filters="sRGB">
<feFlood flood-opacity="0" result="BackgroundImageFix"/>
<feColorMatrix in="SourceAlpha" type="matrix" values="0 0 0 0 0 0 0 0 0 0 0 0 0 0 0 0 0 0 127 0" result="hardAlpha"/>
<feOffset dy="4"/>
<feGaussianBlur stdDeviation="7.5"/>
<feComposite in2="hardAlpha" operator="out"/>
<feColorMatrix type="matrix" values="0 0 0 0 0.764706 0 0 0 0 0.666667 0 0 0 0 0.960784 0 0 0 0.25 0"/>
<feBlend mode="normal" in2="BackgroundImageFix" result="effect1_dropShadow_1127_8351"/>
<feBlend mode="normal" in="SourceGraphic" in2="effect1_dropShadow_1127_8351" result="shape"/>
<feColorMatrix in="SourceAlpha" type="matrix" values="0 0 0 0 0 0 0 0 0 0 0 0 0 0 0 0 0 0 127 0" result="hardAlpha"/>
<feOffset dy="4"/>
<feGaussianBlur stdDeviation="2"/>
<feComposite in2="hardAlpha" operator="arithmetic" k2="-1" k3="1"/>
<feColorMatrix type="matrix" values="0 0 0 0 0.764706 0 0 0 0 0.666667 0 0 0 0 0.960784 0 0 0 0.2 0"/>
<feBlend mode="normal" in2="shape" result="effect2_innerShadow_1127_8351"/>
</filter>
<filter id="filter2_di_1127_8351" x="0.806152" y="0" width="54.2344" height="56.1792" filterUnits="userSpaceOnUse" color-interpolation-filters="sRGB">
<feFlood flood-opacity="0" result="BackgroundImageFix"/>
<feColorMatrix in="SourceAlpha" type="matrix" values="0 0 0 0 0 0 0 0 0 0 0 0 0 0 0 0 0 0 127 0" result="hardAlpha"/>
<feOffset dy="4"/>
<feGaussianBlur stdDeviation="7.5"/>
<feComposite in2="hardAlpha" operator="out"/>
<feColorMatrix type="matrix" values="0 0 0 0 0.764706 0 0 0 0 0.666667 0 0 0 0 0.960784 0 0 0 0.25 0"/>
<feBlend mode="normal" in2="BackgroundImageFix" result="effect1_dropShadow_1127_8351"/>
<feBlend mode="normal" in="SourceGraphic" in2="effect1_dropShadow_1127_8351" result="shape"/>
<feColorMatrix in="SourceAlpha" type="matrix" values="0 0 0 0 0 0 0 0 0 0 0 0 0 0 0 0 0 0 127 0" result="hardAlpha"/>
<feOffset dy="4"/>
<feGaussianBlur stdDeviation="2"/>
<feComposite in2="hardAlpha" operator="arithmetic" k2="-1" k3="1"/>
<feColorMatrix type="matrix" values="0 0 0 0 0.7643 0 0 0 0 0.66568 0 0 0 0 0.961538 0 0 0 0.25 0"/>
<feBlend mode="normal" in2="shape" result="effect2_innerShadow_1127_8351"/>
</filter>
<linearGradient id="paint0_linear_1127_8351" x1="12.3797" y1="51.2872" x2="38.0928" y2="35.3806" gradientUnits="userSpaceOnUse">
<stop stop-color="#FBC2EB"/>
<stop offset="0.383309" stop-color="#EDC2EC"/>
<stop offset="0.705782" stop-color="#C8C1ED"/>
<stop offset="1" stop-color="#A6C1EE"/>
</linearGradient>
<linearGradient id="paint1_linear_1127_8351" x1="39.4568" y1="39.9041" x2="64.2052" y2="25.7719" gradientUnits="userSpaceOnUse">
<stop stop-color="#FBC2EB"/>
<stop offset="0.383309" stop-color="#EDC2EC"/>
<stop offset="0.705782" stop-color="#C8C1ED"/>
<stop offset="1" stop-color="#A6C1EE"/>
</linearGradient>
<linearGradient id="paint2_linear_1127_8351" x1="12.171" y1="32.8597" x2="50.3916" y2="12.2596" gradientUnits="userSpaceOnUse">
<stop stop-color="#FBC2EB"/>
<stop offset="0.383309" stop-color="#EDC2EC"/>
<stop offset="0.705782" stop-color="#C8C1ED"/>
<stop offset="1" stop-color="#A6C1EE"/>
</linearGradient>
</defs>
</svg>
